<?xml version="1.0" standalone="no"?><!DOCTYPE svg PUBLIC "-//W3C//DTD SVG 1.1//EN" "http://www.w3.org/Graphics/SVG/1.1/DTD/svg11.dtd"><svg t="1790512798386" class="icon" viewBox="0 0 1024 1024" version="1.1" xmlns="http://www.w3.org/2000/svg" p-id="7433" xmlns:xlink="http://www.w3.org/1999/xlink" width="200" height="200"><path d="M512 629.04c-64.536 0-117.04-52.504-117.04-117.04S447.464 394.96 512 394.96 629.04 447.464 629.04 512 576.536 629.04 512 629.04z m0-160.08c-23.732 0-43.04 19.308-43.04 43.04s19.308 43.04 43.04 43.04 43.04-19.308 43.04-43.04-19.308-43.04-43.04-43.04zM799.529 836.529c-9.469 0-18.938-3.612-26.163-10.837-14.45-14.449-14.45-37.877 0-52.326C843.18 703.553 881.628 610.731 881.628 512S843.18 320.447 773.366 250.634c-14.449-14.449-14.449-37.877 0-52.326 14.45-14.449 37.876-14.449 52.326 0 40.73 40.73 72.712 88.17 95.058 141.001 23.143 54.717 34.878 112.818 34.878 172.691s-11.734 117.975-34.878 172.691c-22.346 52.831-54.328 100.271-95.058 141.001-7.224 7.225-16.694 10.837-26.163 10.837zM224.471 836.529c-9.469 0-18.938-3.612-26.163-10.837-40.73-40.73-72.712-88.17-95.058-141.001C80.107 629.974 68.372 571.873 68.372 512s11.734-117.975 34.878-172.691c22.346-52.831 54.328-100.271 95.058-141.001 14.45-14.449 37.877-14.448 52.326 0 14.45 14.449 14.45 37.877 0 52.326C180.82 320.447 142.372 413.268 142.372 512s38.448 191.553 108.261 261.366c14.449 14.449 14.449 37.877 0 52.326-7.224 7.225-16.693 10.837-26.162 10.837z" fill="#231815" p-id="7434"></path><path d="M339.681 721.319c-9.47 0-18.938-3.611-26.163-10.837-53.016-53.016-82.214-123.506-82.214-198.482 0-74.978 29.198-145.466 82.214-198.481 14.45-14.448 37.877-14.448 52.326 0 14.449 14.45 14.449 37.877 0 52.326-39.04 39.039-60.54 90.944-60.54 146.155s21.5 107.116 60.54 146.156c14.449 14.449 14.449 37.877 0 52.326-7.224 7.224-16.695 10.837-26.163 10.837zM684.319 721.319c-9.469 0-18.938-3.612-26.163-10.837-14.449-14.449-14.449-37.877 0-52.326 39.04-39.04 60.54-90.945 60.54-146.156s-21.5-107.116-60.54-146.155c-14.449-14.449-14.45-37.876 0-52.326 14.449-14.449 37.876-14.449 52.326 0 53.016 53.016 82.214 123.504 82.214 198.481 0 74.977-29.198 145.466-82.214 198.482-7.225 7.225-16.694 10.837-26.163 10.837z" fill="#231815" p-id="7435"></path></svg>